<svg width="15" height="15" viewBox="0 0 15 15" fill="none" xmlns="http://www.w3.org/2000/svg">
<g clip-path="url(#clip0_510_9810)">
<path d="M14.845 6.71414C14.3329 5.59414 12.3244 1.94189 7.94943 1.94189C3.57443 1.94189 1.56602 5.59414 1.05385 6.71414C0.985098 6.86424 0.949509 7.02739 0.949509 7.19248C0.949509 7.35757 0.985098 7.52072 1.05385 7.67081C1.56602 8.78964 3.57443 12.4419 7.94943 12.4419C12.3244 12.4419 14.3329 8.78964 14.845 7.66964C14.9136 7.51972 14.9492 7.35677 14.9492 7.19189C14.9492 7.02701 14.9136 6.86407 14.845 6.71414ZM7.94943 11.2752C4.27035 11.2752 2.5536 8.14506 2.1161 7.19831C2.5536 6.23873 4.27035 3.10856 7.94943 3.10856C11.6198 3.10856 13.3371 6.22531 13.7828 7.19189C13.3371 8.15848 11.6198 11.2752 7.94943 11.2752Z" fill="#B5DBD8"/>
<path d="M7.94943 4.27527C7.37257 4.27527 6.80866 4.44633 6.32902 4.76682C5.84937 5.0873 5.47554 5.54282 5.25478 6.07578C5.03402 6.60873 4.97626 7.19517 5.0888 7.76095C5.20135 8.32673 5.47913 8.84643 5.88703 9.25433C6.29494 9.66223 6.81464 9.94002 7.38042 10.0526C7.94619 10.1651 8.53264 10.1073 9.06559 9.88659C9.59854 9.66583 10.0541 9.29199 10.3745 8.81235C10.695 8.33271 10.8661 7.7688 10.8661 7.19194C10.8652 6.41867 10.5576 5.67734 10.0108 5.13056C9.46402 4.58378 8.72269 4.27619 7.94943 4.27527ZM7.94943 8.94194C7.60331 8.94194 7.26497 8.8393 6.97718 8.64701C6.68939 8.45472 6.46509 8.1814 6.33264 7.86163C6.20019 7.54186 6.16553 7.18999 6.23305 6.85053C6.30058 6.51106 6.46725 6.19924 6.71199 5.9545C6.95673 5.70976 7.26855 5.54309 7.60802 5.47556C7.94749 5.40804 8.29935 5.44269 8.61912 5.57515C8.9389 5.7076 9.21221 5.9319 9.4045 6.21969C9.59679 6.50747 9.69943 6.84582 9.69943 7.19194C9.69943 7.65606 9.51505 8.10118 9.18687 8.42937C8.85868 8.75756 8.41356 8.94194 7.94943 8.94194Z" fill="#B5DBD8"/>
</g>
<defs>
<clipPath id="clip0_510_9810">
<rect width="14" height="14" fill="white" transform="translate(0.949432 0.191895)"/>
</clipPath>
</defs>
</svg>
