<svg width="15" height="14" viewBox="0 0 15 14" fill="none" xmlns="http://www.w3.org/2000/svg">
<path d="M11.1578 0.726807C10.5009 0.737024 9.85837 0.920388 9.29504 1.25838C8.73172 1.59638 8.26756 2.07703 7.94943 2.65181C7.63131 2.07703 7.16714 1.59638 6.60382 1.25838C6.0405 0.920388 5.39796 0.737024 4.7411 0.726807C3.69398 0.772301 2.70743 1.23037 1.99697 2.00094C1.28652 2.77151 0.909912 3.79195 0.949433 4.83931C0.949433 8.79139 7.34043 13.356 7.61227 13.5496L7.94943 13.7882L8.2866 13.5496C8.55843 13.3571 14.9494 8.79139 14.9494 4.83931C14.989 3.79195 14.6123 2.77151 13.9019 2.00094C13.1914 1.23037 12.2049 0.772301 11.1578 0.726807ZM7.94943 12.3521C6.05185 10.9346 2.1161 7.45206 2.1161 4.83931C2.07622 4.10122 2.32981 3.37732 2.82156 2.82546C3.31331 2.27361 4.00332 1.93859 4.7411 1.89347C5.47888 1.93859 6.16889 2.27361 6.66064 2.82546C7.15239 3.37732 7.40598 4.10122 7.3661 4.83931H8.53277C8.49289 4.10122 8.74648 3.37732 9.23823 2.82546C9.72998 2.27361 10.42 1.93859 11.1578 1.89347C11.8955 1.93859 12.5856 2.27361 13.0773 2.82546C13.5691 3.37732 13.8226 4.10122 13.7828 4.83931C13.7828 7.45322 9.84702 10.9346 7.94943 12.3521Z" fill="#B5DBD8"/>
</svg>
