<svg width="17" height="15" viewBox="0 0 17 15" fill="none" xmlns="http://www.w3.org/2000/svg">
<path d="M14.3333 7.71789V6.76855C14.3333 5.17726 13.7012 3.65113 12.576 2.52591C11.4508 1.4007 9.92463 0.768555 8.33333 0.768555C6.74203 0.768555 5.21591 1.4007 4.09069 2.52591C2.96547 3.65113 2.33333 5.17726 2.33333 6.76855V7.71789C1.6341 8.02578 1.06186 8.56452 0.712412 9.24393C0.362959 9.92334 0.257505 10.7022 0.413703 11.45C0.5699 12.1979 0.978269 12.8694 1.57044 13.3522C2.16262 13.8349 2.90266 14.0996 3.66666 14.1019H5V7.43522H3.66666V6.76855C3.66666 5.53088 4.15833 4.34389 5.0335 3.46872C5.90867 2.59355 7.09565 2.10189 8.33333 2.10189C9.57101 2.10189 10.758 2.59355 11.6332 3.46872C12.5083 4.34389 13 5.53088 13 6.76855V7.43522H11.6667V12.7686H9V14.1019H13C13.764 14.0996 14.504 13.8349 15.0962 13.3522C15.6884 12.8694 16.0968 12.1979 16.253 11.45C16.4092 10.7022 16.3037 9.92334 15.9542 9.24393C15.6048 8.56452 15.0326 8.02578 14.3333 7.71789ZM3.66666 12.7686C3.13623 12.7686 2.62752 12.5578 2.25245 12.1828C1.87738 11.8077 1.66666 11.299 1.66666 10.7686C1.66666 10.2381 1.87738 9.72941 2.25245 9.35434C2.62752 8.97927 3.13623 8.76855 3.66666 8.76855V12.7686ZM13 12.7686V8.76855C13.5304 8.76855 14.0391 8.97927 14.4142 9.35434C14.7893 9.72941 15 10.2381 15 10.7686C15 11.299 14.7893 11.8077 14.4142 12.1828C14.0391 12.5578 13.5304 12.7686 13 12.7686Z" fill="#B5DBD8"/>
</svg>
