<svg width="17" height="17" viewBox="0 0 17 17" fill="none" xmlns="http://www.w3.org/2000/svg">
<g clip-path="url(#clip0_64_5103)">
<path d="M16.0518 2.91199H2.87976L2.85176 2.67799C2.79446 2.1916 2.56068 1.74314 2.19475 1.41764C1.82882 1.09214 1.35618 0.912215 0.866425 0.911987L0.0517578 0.911987V2.24532H0.866425C1.02971 2.24534 1.18732 2.30529 1.30934 2.4138C1.43136 2.5223 1.50932 2.67182 1.52842 2.83399L2.58509 11.8127C2.64239 12.299 2.87617 12.7475 3.2421 13.073C3.60803 13.3985 4.08067 13.5784 4.57042 13.5787H13.3851V12.2453H4.57042C4.40703 12.2453 4.24935 12.1852 4.12731 12.0766C4.00527 11.968 3.92738 11.8183 3.90842 11.656L3.82109 10.912H14.6091L16.0518 2.91199ZM13.4944 9.57865H3.66442L3.03709 4.24532H14.4564L13.4944 9.57865Z" fill="white"/>
<path d="M4.7181 16.912C5.45448 16.912 6.05143 16.315 6.05143 15.5786C6.05143 14.8423 5.45448 14.2453 4.7181 14.2453C3.98172 14.2453 3.38477 14.8423 3.38477 15.5786C3.38477 16.315 3.98172 16.912 4.7181 16.912Z" fill="white"/>
<path d="M11.3851 16.912C12.1215 16.912 12.7184 16.315 12.7184 15.5786C12.7184 14.8423 12.1215 14.2453 11.3851 14.2453C10.6487 14.2453 10.0518 14.8423 10.0518 15.5786C10.0518 16.315 10.6487 16.912 11.3851 16.912Z" fill="white"/>
</g>
<defs>
<clipPath id="clip0_64_5103">
<rect width="16" height="16" fill="white" transform="translate(0.0517578 0.911987)"/>
</clipPath>
</defs>
</svg>
