<svg width="15" height="15" viewBox="0 0 15 15" fill="none" xmlns="http://www.w3.org/2000/svg">
<g clip-path="url(#clip0_510_9806)">
<path d="M12.6873 7.94617L11.8624 8.771L13.1994 10.1086H12.9766C11.0026 10.1086 9.74727 9.21492 8.63311 8.06225L8.45811 8.26525C8.26677 8.48692 8.06961 8.715 7.86427 8.94425C8.49846 9.67858 9.28381 10.2672 10.1666 10.67C11.0493 11.0727 12.0087 11.28 12.9789 11.2776H13.1994L11.8619 12.6152L12.6867 13.44L14.6076 11.5191C14.8263 11.3003 14.9492 11.0036 14.9492 10.6942C14.9492 10.3849 14.8263 10.0882 14.6076 9.86942L12.6873 7.94617Z" fill="#B5DBD8"/>
<path d="M12.9772 4.27525H13.1994L11.8624 5.61283L12.6873 6.43767L14.6082 4.51675C14.8269 4.29797 14.9498 4.00128 14.9498 3.69192C14.9498 3.38256 14.8269 3.08587 14.6082 2.86708L12.6873 0.946167L11.8624 1.771L13.1994 3.10858H12.9766C10.085 3.10858 8.50418 4.66608 7.06977 6.30408C5.65285 4.704 3.94952 3.10858 0.926102 3.10858V4.27525C3.5301 4.27525 4.93535 5.63792 6.29802 7.19192C4.93535 8.74592 3.5301 10.1086 0.926102 10.1086V11.2753C4.3141 11.2753 6.04543 9.27092 7.5761 7.50342C9.0076 5.84325 10.3627 4.27525 12.9772 4.27525Z" fill="#B5DBD8"/>
</g>
<defs>
<clipPath id="clip0_510_9806">
<rect width="14" height="14" fill="white" transform="translate(0.949432 0.191895)"/>
</clipPath>
</defs>
</svg>
